<svg xmlns="http://www.w3.org/2000/svg" viewBox="0 0 512 512">
  <defs>
    <linearGradient id="g" x1="0%" y1="0%" x2="100%" y2="100%">
      <stop offset="0%" stop-color="#667eea"/>
      <stop offset="100%" stop-color="#764ba2"/>
    </linearGradient>
  </defs>
  <rect width="512" height="512" rx="100" fill="url(#g)"/>
  <!-- Book icons (smaller) -->
  <path d="M100 280c0-6.6 5.4-12 12-12h52c6.6 0 12 5.4 12 12v132c0 6.6-5.4 12-12 12h-52c-6.6 0-12-5.4-12-12V280z" fill="#fff" opacity="0.8"/>
  <path d="M236 280c0-6.6 5.4-12 12-12h52c6.6 0 12 5.4 12 12v132c0 6.6-5.4 12-12 12h-52c-6.6 0-12-5.4-12-12V280z" fill="#fff" opacity="0.8"/>
  <path d="M176 295v102M288 295v102" stroke="#667eea" stroke-width="6" stroke-linecap="round"/>
  <!-- Large E letter -->
  <text x="256" y="220" font-family="Arial, sans-serif" font-size="220" font-weight="bold" text-anchor="middle" fill="#fff">E</text>
</svg>